<svg width="67.31mm" height="41.994mm" version="1.1" viewBox="0 0 67.31 41.994" xmlns="http://www.w3.org/2000/svg">
 <g transform="translate(-44.092 -28.296)">
  <g transform="matrix(.26458 0 0 .26458 61.302 30.556)">
   <path d="m15.293 18.254c-.35-.218-.631-.542-1.043-.666.88-.888 1.244-.953 2.613-.462.321 1.177.57 1.928 1.379 2.34l-.033.016c-1.067.414-1.814 1.54-3.144 1.382.18-.488.53-.917.544-1.464l.752-.511c-.091.004-.191.004-.292 0-.209-.012-.439-.016-.593.067-.005 0-.547.467-1.059.949-.178.161-.374.353-.914.609.152-.767.379-1.417 1.79-2.26zm32.756-3.169.78-.45-.036-.635c-.242.363-.598.657-.744 1.085zm14.462 16.17c0 17.233-14.02 31.255-31.255 31.255-17.236.001-31.256-14.019-31.256-31.255s14.02-31.255 31.256-31.255c17.235 0 31.255 14.021 31.255 31.255zm-37.072 28.331c-.415-.604-.429-.661-.319-1.186l-.829-.186c.733-.183.92-.2 1.638-.189-.091-.15-.234-.355-.365-.492.671-.287 1.422-.381 2.006-.835.154.041.356.096.507.142l.533-.386c.018-1.373.018-1.373-.227-2.148 3.749-2.242 3.749-2.242 3.161-3.589 2.149-2.294 2.149-2.294 2.226-3.702.019-.161.022-.381.027-.55-.047 0-4.939-.173-7.893-2.944-.425.034-1.072.07-2.125.876-.264-.176-.611-.415-.876-.586l.72-.739c-1.168-2.279-1.432-2.304-2.332-2.432-1.696-.224-1.696-.224-2.191-1.815l-.401-.402c-1.096-1.042-2.465-1.569-3.915-2.123l-.958.101c-.844-.5-1.201-.715-1.957-1.185-1.127 1.072-1.491.828-3.831-.711-.014-.192-.675-1.31-1.939-2.058l-.224-.537c.059-.51.125-1.024.207-1.533.469-.535.551-.687.733-1.337-.589-.053-.954.171-1.643.965-.288-.117-.57-.243-.833-.373-.101-.398-.412-1.808-.201-3.268.502-.239.502-.239 1.523-2.11 1.848.061 1.848.061 2.953.807.272-.145.633-.35.91-.499l.278.889c.353.035.435.04.985-.167-.23 1.226.101 2.449.042 3.668.432-.361 1.016-.834 1.441-1.194l-.45-.983c.172-.575.277-.896.8-1.815-.067.246-.131.491-.191.738.617-.427 1.359-.619 1.985-1.025.526-.007.935.076 1.36.154 1.346-1.604 1.346-1.604 1.752-1.995 2.244-.974 2.244-.974 8.061-2.537-.538-.118-.538-.118-.982-.615.215-.224.493-.523.708-.754-.049-.008-.049-.008-2.605.455 1.283-1.023 2.48-1.095 4.716-1.023.535.024.535.024 2.652-1.734-.588.036-.757.08-1.551.407.096-.465.096-.465.319-.94-.141-.245-.319-.586-.453-.836.143-.439.143-.439.397-.905-.661-.334-1.226-.303-1.929-.145-.949-1.58-.949-1.58-1.46-1.668-.01.271-.024.633-.04.902-.325-.028-.649-.054-.956-.089-1.217 1.378-2.672 2.521-3.908 3.885-.635-.736-1.014-2.971-1.056-3.738.376-.194.885-.446 1.269-.633l.972-.497c3.091-1.918 3.091-1.918 4.23-1.397.254-.241.598-.544.862-.775l-.215-.584c-.623.29-.829.341-1.193.43-.339-.67-.11-1.389-.196-2.086l-.091-.049c-1.217 2.219-1.217 2.219-2.532 2.151-.029-.083-.065-.194-.101-.279-.568-.047-.631-.073-1.215-.3-.273.122-.628.276-.894.396.041-.078.085-.183.123-.262-.163-.047-.397-.094-.564-.121-.024-.196-.057-.456-.086-.657-2.614 1.315-2.637 1.29-3.021.857 1.217-.245 1.34-.271 2.724-.929-.211-.056-.412-.118-.608-.185l.229-.568c-.257-.096-.512-.181-.745-.266-.675.266-.891.277-1.47.072.18-.264.416-.609.594-.869-.365-.088-.562-.149-1.656.104.049-.104.123-.213.19-.325-1.375.855-2.671 1.817-3.872 2.884.051.02.114.042.167.056-.915.813-1.703 1.519-2.417 2.161-4.363 4.788-7.131 11.032-7.488 17.918 4.589 2.996 6.734 8.406 6.762 8.459-3.263 5.105-.535 6.593 1.282 7.582.116.457.245.913.378 1.355.743.757 3.083 2.838 5.073 3.41.715 3.543 2.763 6.271 6.104 8.091 1.095.371 2.233.703 3.405.945zm18.878-54.098c-.146.117-.292.236-.483.344 1.24 1.418 1.373 1.565 2.007 2.719-.178.798-.178.798 1.355 2.02.077-.051.173-.127.246-.183-.128-.428-.128-.428-.598-1.03l.087.068.146.137.144.143.145.14.139.136.135.141.132.134.135.136h.27c.267-.729.267-.729-1.49-2.982l.498.035.862 1.175c.2.031.479.025.675-.024.109-.076.178-.125.23-.165-1.45-1.126-2.997-2.109-4.635-2.944zm3.887 3.461-.032-.049.01.042c.041.186.041.377.077.567l.06.061c.447.451.521.63.538.684-.018-.059-.224-.616-.653-1.305zm-2.992 5.142.05.082.041.072.05.084.046.073.041.081.048.08.048.069.039.08.048.075.043.079.044.087.048.074.043.078.048.08.039.077.048.077c.032-.555.181-.811.531-.918l-.579-1.188-.029.014c-.305.115-.506.539-.647.844zm-4.54-3.83c-.392.085-.661.179-.931.353.224.149.507.353.73.5 1.433-.234 1.446-.526 1.446-.78v-.1c-.433-.066-.793-.052-1.245.027zm-2.408-1.801c.123-.138.237-.164 1.058-.138-.241-.338-.483-.668-.734-.989.146-.014.288.02.639.133-.05-.17-.132-.406-.187-.577-1.113-.972-1.487-2.167-1.487-2.174l.009-.051c-.557.462-.602.501-.871.333-.142-.125-.278-.266-.415-.393.205-.032.401-.069.593-.112l-.659-.339-.05.014-.178.053-.055.02c-.15.056-.229.208-.388.259-.06.022-.114.005-.164 0-.073-.021-.151-.04-.224.022-.143.112-.139.312-.109.569-.229-.034-.384-.25-.634-.232-.312.027-.572.004-.572.004-.072-.024-.303-.1-.775-.323-.031.218-.058.502-.077.715-.11-.022-.178-.036-.456-.269-.369.607-.693 1.011-1.32 1.667.261.011.818.204.818.204.388.306.703.883 1.019 1.254.04.243.021.439-.071.82.143.176.339.405.479.586-.187.458-.378.869-.555 1.226l-.096.175c-.049.535.339.947.397 1.439.465.114.713.647 1.25.633.411-.015.397-.341.348-.69.647-.137 2.928-1.41 4.425-3.323-.256.016-.945-.334-.958-.516zm-9.932 1.203c-.565.67-.857 1.067-1.246 1.718-.406-.017-.785.123-1.177.174.421.035.867.067 1.312.096l.521.972c.972-1.899 1.593-1.513 2.249-.852.167-.174.479-.486.551-.954l.015-.145c-.47.159-.428-.555-.403-.941-.417-.278-.542-.477-.527-.804-.129-.011-.325-.081-.671-.231-.401-.172-.549-.177-.684-.132-.071-.162-.176-.37-.252-.535-.187.127-.341.224-.671.476-.073-.03-.053-.175.096-.574l-.044.016c-.603.201-.603.201-.951.486.029.014.029.014.316.575.507-.244 1.484.095 1.566.655zm-1.948-2.999.027-.021c.005-.147.019-.348.019-.502l-.038.018c-.3.145-.492.247-.492.247l-.018.042c-.096.194-.211.388-.341.591.096.007.355.038.843-.375zm-.138.691-.021.045c-.075.149-.22.43-.111 1.244l.015.056c.159-.368.159-.789.117-1.345zm.425-2.144c.119-.096.119-.096.196-.568l-.068.044c-1.09.64-1.09.64-1.32.727.54-.084.54-.084.8-.189-.015.112-.015.18.014.266.032-.023.095-.063.378-.28zm-5.068 2.7c-.036.113-.082.211-.136.316-.038-.004-.425.054-.668.17.376.706 1.593.818 3.067-.366l.178-.145c-.617-.107-.684-.299-.738-.43-.115-.009-.253.031-.635.185-.145-.129-.341-.302-.479-.428-.009-.383-.009-.383-.26-.607l.011.021c-.033.29-.344.435-.363.727-.018.188.078.372.023.557zm2.459-.569c.168.027.33.056.497.083.165-.194.321-.392.479-.588l.073-.089c-.196.133-.412.203-.613.311.005-.185-.072-.358-.044-.548.029-.165.068-.26.196-.412l-.056-.002c-.183-.033-.375 0-.556-.038-.115-.021-.129-.079-.145-.107-.53.196-.731.283-.904.393l.033.131c.925.014.925.014.967.021-.192.111-.439.252-.631.357.297.076.407.415.704.488zm6.855-1.157c.559-.038.827-.296 1.086-1.103.075-.209-.181-.403-.243-.396-.056.011-.11.046-.206.136-.21-.103-.626-.013-1.023.083-.379.089-.575.12-.72.12.049.259.12.432.452.896-1.121.867-1.479 1.119-2.235 1.101.137.021.243.071.588.25.985-.303 1.095-.343 1.351-.635.144.014.248.065.439.22.161-.203.362-.469.511-.672zm-4.036 12.442.018.018c.01.007.886.695 1.027 1.037l.68-.75zm-12.063 13.13-.957-.524-.153.041c-.584.167-.67.22-.422 1.168.628-.061.628-.061 1.38.867l.731-.674zm-3.087-1.406c-.54-.709-.554-.727-1.43-.256-.03-.236-.125-.977-.827-.977-.424-.012-.674-.035-1.077-.092.124.178.465.662 1.72 1.023l.182.046c.479.832.479.832 1.66 1.101l.316-.281c-.127-.048-.261-.192-.544-.564zm46.222 12.003c1.429-3.419 2.223-7.167 2.223-11.099 0-3.945-.799-7.708-2.236-11.14-.191.078-.405.163-.666.266.032.405 0 .561-.21 1.243-.917-.119-2.609-1.875-2.627-1.892-.726.407-2.245 1.259-4.435 1.85l.183.189c-.01.089-.014.196-.019.288l-.087.018-.091.022-.082.027-.096.019-.097.025-.1.024-.096.025-.105.024c-.915 2.305-1.699 4.293-4.235 7.851l.81.666c.454 3.218.454 3.218-.039 4.277 4.102 3.6 4.102 3.6 5.002 3.855.167-.263.397-.621.575-.89 1.277-.292 2.45-.614 3.518-.954 3.216-.993 3.422-1.044 2.91 5.306zm-8.726-33.714c1.341 2.544 1.359 2.6 1.373 3.256-.36-.109-.36-.109-.816-.338-.046.173-.114.395-.165.561-.347-.122-.433-.152-1.277-1.074-.05.275-.05.275.758 1.228-.055.156-.205.341-.338.444.005.294.005.68.009.967-1.058-.379-1.058-.379-1.642-.702-.146-.119-.183-.165-.215-.219l-.104-.145-.105-.152-.109-.145-.114-.143-.104-.147-.109-.14-.109-.145c-.146.098-.343.248-.475.375.055.223.146.6 1.501 1.458.014.341.031.789.036 1.121.133.128.301.294.434.424l-.055.207c.465.056.465.056 1.838 2.116-.209.115-.424.233-2.637.358.388.812.872 1.576 1.269 2.39l-.21.196.046.114.041.112.046.113.036.109.041.107.036.103.041.098.041.103c1.999-.687 2.085-.716 3.103-1.151-.2-.463-.415-.92-.634-1.369.693-.626.319-1.664.921-2.327.224-.084.438-.173.64-.262 1.542 1.547 1.601 1.607 2.436 1.313.26.388.26.388.593.806-.25-.486-.424-.802-1.428-2.166-.041.071-.082.169-.123.243-.297-.088-.297-.088-.762-.46.055-.075.142-.168.205-.236.598.08.598.08 3.618 2.48.041-.28-.019-.518-.119-.735-.118-.21-.251-.404-.369-.61-.191-.252-.369-.511-.483-.798-1.775-2.8-3.983-5.284-6.56-7.338z"/>
  </g>
  <g stroke-width=".26458">
   <g aria-label="G">
    <path d="m59.881 39.694q.43408 0 .59531.08682.17363.07441.17363.34727 0 .27285-.31006.58291-.29766.29766-.29766.84336v1.017q0 .40928.23564.64492.24805.23564.24805.42168 0 .5085-1.0914 1.2898-1.079.78135-2.7285 1.3395-1.6495.5457-3.175.5457-3.8695 0-6.6601-2.5549-2.7781-2.5673-2.7781-6.8213 0-2.4805 1.1286-4.6137 1.141-2.1332 3.1626-3.3238 2.0216-1.203 4.5393-1.203 2.4433 0 4.5269.89297 2.0836.88057 2.0836 1.972v.99219q0 .14883.06201.45889.06201.29766.06201.55811 0 .24805-.12402.43408-.11162.17363-.31006.17363-.21084 0-.39688-.16123-.18604-.17363-.5457-.93018-.68213-1.4139-1.4263-2.0464-1.3022-1.1038-3.6215-1.1038-2.9394 0-4.7129 2.1456-1.7611 2.1456-1.7611 5.6307 0 3.9687 1.91 6.1268 1.91 2.1456 4.9237 2.1456 1.5627 0 2.9021-.62012 1.3395-.63252 1.3395-1.8355v-1.6743q0-.60772-1.141-.60772-.19844 0-.62012.0248-.40928.02481-.58291.02481-.47129 0-.73174-.18604t-.26045-.48369q0-.5333.71934-.5333z"/>
   </g>
   <g aria-label="&amp;  ">
    <path d="m60.87 50.795q.06201.09922.31006.33486.24805.22324.24805.47129 0 .27285-.40928.27285-.11162 0-.44648-.0248-.33486-.03721-.5457-.03721-1.203 0-2.7533 1.2774-1.5379 1.2774-1.5379 3.9563 0 2.1456 1.4883 3.8323 1.4883 1.6743 3.4851 1.6743 1.9968 0 3.7703-1.3519 1.7735-1.3643 1.7735-3.299 0-1.4511-.83096-2.2944-.83096-.85576-1.7611-.85576-.73174 0-1.2402.48369-.5085.47129-.5085 1.2526 0 .5209.5085.90537.27285.19844.27285.33486 0 .17363-.18604.32246-.18604.13642-.37207.13642-.44648 0-.81856-.49609-.37207-.5085-.37207-1.265 0-.90537.43408-1.7239.43408-.83096 1.5627-1.6867 1.1286-.86816 2.5549-1.2526 1.4263-.38447 3.7455-.38447 2.1084 0 3.4106-.44648 1.3146-.45889 1.3146-1.4387 0-.11162-.12402-.33486-.12402-.23564-.12402-.37207 0-.43408.5333-.43408.31006 0 .5085.35967.19844.34727.19844.75654 0 .76894-.63252 1.5627-.62012.78135-1.7363 1.3891-1.1038.59531-2.4805.79375-1.3643.19844-3.7827.19844-1.3767 0-1.7363.14883-.34727.13643-.34727.22324 0 .08682.22324.08682 1.1038 0 2.0712 1.1658.97978 1.1658.97978 2.9146 0 1.5255-.99219 2.7905-.99219 1.2526-2.6789 1.9968-1.6867.73174-3.3114.73174-3.2246 0-5.3206-1.9348-2.096-1.9348-2.096-4.7997 0-2.2324 1.7859-3.9812 1.7983-1.7611 4.1548-1.9596.22324-.02481.22324-.09922t-.17363-.31006l-3.3238-4.6757q-.11162-.14883-.11162-.24805 0-.24805.47129-.29766.48369-.06201 1.6743-.06201h5.7423q.48369 0 .71934.07441.23564.07441.35967.39688.13643.31006.13643 1.0046 0 1.1534-.17363 1.4015t-.5085.24805q-.34726 0-.59531-.5333-.22324-.48369-.49609-.48369h-3.4354q-.73174 0-.73174.44648 0 .22324.17363.47129z"/>
   </g>
   <g aria-label="Rent">
    <path d="m69.222 54.006q0-.94258-1.2898-1.017-.89297-.04961-.89297-.58291 0-.5581 1.017-.5581.48369 0 1.0666.08682t.99219.08682q.27285 0 1.5131-.17363 1.2402-.17363 1.91-.17363 2.5549 0 4.1424 1.3146 1.5999 1.3146 1.5999 3.4106 0 1.3395-.79375 2.22-.78135.86816-2.7037 1.6123-.35967.13643-.35967.28525 0 .09922.14883.32246.68213.96738 2.5673 4.192 1.8852 3.2122 2.0092 3.361.12402.13643.65732.32246.5333.17363.66973.35967.14883.17363.14883.39688 0 .28525-.37207.48369-.37207.21084-.59531.21084-.57051 0-1.3891-.43408-.81855-.44648-1.079-.75654-.48369-.62012-3.1626-5.0602-1.2526-2.0712-1.4387-2.3316-.66973-.96738-1.3146-1.2402-.16123-.06201-.21084-.12402-.04961-.07441-.04961-.29766 0-.5333.64492-.5333.06201 0 .34727.04961.28525.03721.5581.03721 1.3643 0 2.282-.88057.91777-.88057.91777-2.4557 0-1.1162-1.0294-2.22-1.0294-1.1038-2.8525-1.1038-.68213 0-1.0046.16123-.31006.14883-.39688.38447-.07441.22324-.07441.59531v13.891q0 .40928.34727.66973.35967.24805.93018.24805.62012 0 .83096.16123.21084.16123.21084.47129 0 .29766-.27285.49609-.26045.19844-.79375.19844-.48369 0-1.1906-.28525-.69453-.27285-1.1038-.27285-.34727 0-1.0418.26045-.69453.27285-1.0914.27285-1.141 0-1.141-.71934 0-.27285.18604-.39688.18604-.13642.93018-.13642.44648 0 .73174-.19844.28525-.19844.28525-.48369z"/>
    <path d="m89.674 64.957q.28525 0 .38447-.09922.09922-.09922.09922-.35967 0-.95498-.74414-1.7859-.73174-.83096-2.22-.83096-1.0294 0-2.1332.97978-1.0914.97978-1.0914 2.7781 0 1.3146 1.1534 2.3688 1.1658 1.0418 2.6045 1.0418 1.0914 0 2.3564-.68213.48369-.26045.63252-.26045.22324 0 .34727.12402.13643.12402.13643.31006 0 .44648-1.3767 1.1038-1.3643.64492-2.8153.64492-2.1456 0-3.6091-1.4635-1.4635-1.4635-1.4635-3.4851 0-1.8479 1.5999-3.1626 1.6123-1.3146 3.6091-1.3146 2.5921 0 3.8819 1.3271t1.2898 3.175q0 .39688-.19844.49609-.19844.08682-.73174.08682h-5.6927q-.69453 0-.69453-.5085 0-.48369.71934-.48369z"/>
    <path d="m102.51 68.083q0 .5333.17363.70693.18604.16123.64492.27285.47129.09922.47129.38447 0 .38447-.45889.38447-.0868 0-.74414-.03721-.65732-.03721-1.1038-.03721-.74414 0-1.2526.08682-.5085.08682-.65733.08682-.22324 0-.42168-.14883-.18604-.14883-.18604-.35967 0-.16123.16123-.29766.16123-.14883.37207-.14883.39688 0 .70693-.22324.31006-.23564.31006-.69453 0-2.989.0372-3.6959.0372-.71934.0372-.80615 0-.96738-.89297-.96738-.38447 0-1.1038.59531-.70693.58291-1.0046.58291-.09922 0-.22324-.12402-.12402-.12402-.12402-.26045 0-.43408 1.141-1.3271 1.141-.90537 2.2324-.90537.64492 0 1.1162.33486.47129.32246.62012.81855.16123.49609.16123 1.4015l-.0124.79375zm-7.6026-4.7749q0-.45889-.18604-.68213-.17363-.23564-.74414-.33486-.57051-.09922-.57051-.5085 0-.17363.19844-.33486.19844-.17363.5209-.17363.13643 0 .47129.08682.34727.08682.57051.08682.13643 0 .62012-.07441.49609-.07441.62012-.07441.24805 0 .34727.21084.09922.19844.11162.81856.02481 1.0294.02481 2.1952l-.07442 3.5347q0 .38447.06201.47129.06201.08682.28525.22324.23564.13643.59531.21084.35967.07441.45889.21084.09922.12402.09922.29766 0 .40928-.64492.40928-.44648 0-.91777-.07441t-.93018-.07441q-.37207 0-.96738.06201-.58291.06201-.86816.06201-.63252 0-.63252-.45889 0-.19844.11162-.32246.11162-.12402.48369-.14883.42168-.02481.5209-.12402.28525-.29766.35967-.5209.07442-.22324.07442-.91777z"/>
    <path d="m108.74 67.041q0 1.0418.0992 1.3395.0992.28525.35967.28525.40928 0 1.0046-.44648.59531-.44648.79375-.44648.16123 0 .28525.14883.12403.14883.12403.35967 0 .34726-.97979 1.1534-.96738.80615-1.7115.80615-1.9596 0-1.9596-2.8773v-4.7749q0-.23564-.062-.24805-.062-.0248-.69453-.0248-.4961 0-.66973-.13643-.17363-.14883-.17363-.42168 0-.23564.12402-.33486.13642-.09922.5085-.19844.38447-.11162.58291-.24805.21084-.14883.5705-.59531.37207-.45889.5209-1.2774.16123-.81856.16123-2.3564 0-.73174.39688-.73174.44648 0 .5581.21084.11162.19844.11162.68213v4.1424q0 .24805.32246.24805h1.7611q.5333 0 .5333.45889 0 .5333-.76895.5333h-1.5503q-.17363 0-.21084.06201-.0372.04961-.0372.27285z"/>
   </g>
  </g>
  <text transform="scale(.26458)" fill="#000000" font-family="sans-serif" font-size="40px" style="line-height:1.25;shape-inside:url(#rect7349);white-space:pre" xml:space="preserve"/>
 </g>
</svg>
