<svg width="54" height="65" viewBox="0 0 54 74" fill="none" xmlns="http://www.w3.org/2000/svg">
<path d="M2.77271 24.5301C2.77271 46.4063 26.6714 73.3701 26.6714 73.3701V24.5301H2.77271Z" fill="#0064BB"/>
<path d="M50.5699 24.5301C50.5699 46.4063 26.6711 73.3701 26.6711 73.3701V24.5301H50.5699Z" fill="#003D8C"/>
<path d="M2.77344 24.529C2.77344 37.7279 13.4732 48.4277 26.6722 48.4277V0.630287C13.4732 0.630287 2.77344 11.3301 2.77344 24.529Z" fill="#0064BB"/>
<path d="M50.5699 24.529C50.5699 37.7279 39.8701 48.4277 26.6711 48.4277V0.630287C39.8701 0.630287 50.5699 11.3301 50.5699 24.529Z" fill="#003D8C"/>
<path d="M8.80518 24.5304C8.80518 34.3982 16.8047 42.3975 26.6725 42.3975V6.66311C16.8047 6.66311 8.80518 14.6626 8.80518 24.5304Z" fill="#0088E9"/>
<path d="M26.6709 6.66745V42.4026C36.5387 42.4026 44.5382 34.4033 44.5382 24.5355C44.5382 14.6677 36.5387 6.66823 26.6709 6.66823" fill="#0064BB"/>
<path d="M26.5814 37.9468C19.1531 37.9468 13.1096 31.903 13.1096 24.475C13.1096 17.0464 19.1531 11.003 26.5814 11.003C34.01 11.003 40.0532 17.0464 40.0532 24.475C40.0532 31.903 34.01 37.9468 26.5814 37.9468Z" fill="#06B3FF"/>
<path d="M24.9224 36.8311L24.7178 36.5036C24.608 36.3282 24.6458 36.0989 24.806 35.9678L26.4445 34.6271C26.532 34.5554 26.5827 34.448 26.5821 34.3348L26.58 33.9448C26.5793 33.792 26.6725 33.6541 26.8148 33.5974L26.8201 33.5956C26.9456 33.5457 27.0344 33.4354 27.0562 33.3033C27.0872 33.1126 27.1337 32.8318 27.1665 32.633C27.1909 32.4876 27.2975 32.3696 27.4399 32.3308L28.4796 32.0484C28.7188 31.9836 28.8798 31.7606 28.8667 31.5132L28.8215 30.6733C28.8163 30.5717 28.8402 30.4703 28.8914 30.3821L29.4355 29.4403C29.4988 29.3308 29.5219 29.2024 29.5009 29.0774L29.4786 28.9445C29.4397 28.7129 29.2504 28.5359 29.0167 28.5117C29.0132 28.5114 29.0096 28.5109 29.0059 28.5106C28.8221 28.492 28.6611 28.3791 28.5812 28.2123C28.5368 28.1196 28.4862 28.0156 28.4415 27.9234C28.3627 27.7619 28.207 27.6519 28.0284 27.6319L26.8138 27.4959C26.6662 27.4793 26.5315 27.404 26.4403 27.2868L25.872 26.5573C25.7943 26.4577 25.6848 26.3876 25.5616 26.3592L24.8824 26.2019C24.7144 26.1631 24.5746 26.0478 24.504 25.8907L24.4533 25.7781C24.3664 25.5845 24.1762 25.4579 23.9646 25.4527L23.5105 25.4411C23.3269 25.4364 23.1578 25.3408 23.0593 25.1861L22.9734 25.0511C22.8823 24.908 22.73 24.8153 22.5611 24.7998L22.0451 24.7528C21.8234 24.7325 21.612 24.8523 21.5148 25.0527L21.5125 25.0574C21.4765 25.1317 21.4258 25.1953 21.3625 25.246C21.1721 25.3988 20.765 25.7245 20.765 25.7245L20.0904 25.4616C20.0019 25.4269 19.9375 25.3489 19.9207 25.2554L19.8296 24.7488C19.8251 24.7252 19.8241 24.701 19.8262 24.6774L19.86 24.2806C19.8708 24.1535 19.791 24.0361 19.6686 23.9996L19.5071 23.951C19.3361 23.9 19.2615 23.6999 19.3574 23.5494L19.3624 23.5416C19.4622 23.3848 19.3828 23.1781 19.2056 23.1287C19.1294 23.1074 19.0543 23.0864 18.9955 23.0696C18.9222 23.0489 18.8439 23.0596 18.7791 23.0993L18.059 23.5376C17.9762 23.588 17.8728 23.5907 17.7877 23.5447L17.5377 23.4102C17.4444 23.3601 17.3888 23.2608 17.3945 23.155L17.431 22.4792C17.4371 22.3666 17.4885 22.2613 17.5736 22.1872L18.5083 21.3718C18.5876 21.3027 18.6903 21.2659 18.7956 21.2693L19.2741 21.2843C19.4249 21.289 19.5614 21.3746 19.6313 21.5086L19.9278 22.0785C19.9998 22.2166 20.1424 22.303 20.2981 22.303C20.5263 22.303 20.7122 22.1197 20.7154 21.8915L20.7222 21.4151C20.723 21.3523 20.738 21.2903 20.7661 21.2341L21.0156 20.7354C21.0552 20.6561 21.1196 20.5912 21.1986 20.5505L23.4706 19.3866C23.5488 19.3464 23.6124 19.2826 23.6523 19.2043L24.3078 17.917C24.3375 17.8589 24.3795 17.808 24.4307 17.7678L24.8683 17.4253C24.947 17.3636 25.0442 17.33 25.1443 17.33H26.4506C26.6315 17.33 26.7943 17.2215 26.8642 17.0545L26.8718 17.0358C26.9254 16.9072 26.9159 16.7606 26.8461 16.6395L26.5309 16.0946C26.4753 15.9982 26.3857 15.926 26.2799 15.8921L25.9891 15.7994C25.8415 15.7519 25.68 15.7844 25.5624 15.885L25.0135 16.353C24.8882 16.4599 24.7144 16.4893 24.5607 16.4297L24.1245 16.2601C23.9396 16.1884 23.7295 16.2472 23.6092 16.4048L23.3101 16.7961C23.1925 16.95 22.9879 17.0091 22.8061 16.9416L22.7988 16.9387C22.6228 16.8733 22.5065 16.7078 22.5044 16.5219C22.5039 16.4825 22.5033 16.4413 22.5028 16.4003C22.4999 16.1555 22.3006 15.9588 22.0558 15.9588H22.0435C21.8313 15.9588 21.6482 15.8099 21.6052 15.6025L21.5994 15.5754C21.5637 15.4039 21.6314 15.2272 21.7727 15.1234L22.7053 14.4377C22.7775 14.3847 22.8726 14.3752 22.9537 14.4128L23.6171 14.7198C23.6455 14.7329 23.6762 14.7405 23.7077 14.7421L24.3695 14.776C24.4383 14.7794 24.5053 14.7537 24.5544 14.7053L25.4773 13.7943C25.5204 13.752 25.5773 13.7268 25.6377 13.7239L25.9886 13.7063C26.0582 13.7029 26.1262 13.7292 26.1753 13.7791L27.1281 14.7431C27.2132 14.829 27.3477 14.8403 27.4459 14.7699L27.8104 14.5084C27.8748 14.4624 27.9129 14.3881 27.9129 14.309V13.6885C27.9129 13.5506 27.7997 13.44 27.662 13.4429L27.3522 13.4495C27.2939 13.4508 27.2369 13.4311 27.1917 13.3941L26.4125 12.7567C26.3705 12.7223 26.3179 12.7026 26.2636 12.7013L25.3935 12.6781C25.3384 12.6766 25.2845 12.6936 25.2404 12.7265L24.3811 13.3649C24.3196 13.4109 24.2403 13.425 24.1668 13.4038L23.796 13.2969C23.7119 13.2725 23.6471 13.2055 23.6258 13.1204L23.5657 12.8796C23.5333 12.7506 23.4047 12.6708 23.2749 12.6992L23.0761 12.7427C22.9916 12.7614 22.923 12.8228 22.8957 12.905L22.6859 13.5343C22.6709 13.5797 22.6428 13.6196 22.6055 13.6493L22.5049 13.7289C22.4059 13.8072 22.2633 13.7974 22.1758 13.7066L22.1217 13.6504C22.0353 13.5608 22.0298 13.4203 22.1091 13.3242L22.6465 12.6711C22.7318 12.5673 22.7155 12.4137 22.6102 12.3304L22.606 12.3273C22.5233 12.2619 22.4101 12.2556 22.3219 12.3113C22.1354 12.4292 21.825 12.6254 21.7173 12.6934C21.6921 12.7091 21.6643 12.7204 21.6348 12.7262L20.9885 12.8554C20.942 12.8646 20.894 12.8609 20.8496 12.8441L20.6051 12.7512C20.5473 12.7294 20.484 12.7294 20.4263 12.7512L20.1418 12.8586C20.0063 12.9098 19.9417 13.0642 20 13.1966L20.0972 13.4161C20.1334 13.4981 20.2104 13.5545 20.2991 13.5645L20.6059 13.5989C20.7887 13.6194 20.8864 13.8248 20.7876 13.9797L20.7847 13.9847C20.7372 14.059 20.6571 14.1031 20.5707 14.1029C20.3556 14.1026 19.9501 14.1026 19.7849 14.1026C19.7371 14.1026 19.6909 14.089 19.6505 14.0635L18.7712 13.508L18.6144 13.517C18.403 13.5288 18.2018 13.6084 18.0374 13.7415C16.0767 15.3285 14.5553 17.4361 13.6842 19.8546C13.6401 19.9772 13.6217 20.1078 13.6282 20.2378L13.6506 20.6994L14.9994 21.5989C15.1189 21.6788 15.2121 21.792 15.2673 21.9246L15.3566 22.1384C15.423 22.2983 15.4301 22.4766 15.3768 22.6415L15.2762 22.9517C15.2158 23.1376 15.2352 23.3399 15.3298 23.5111L15.3342 23.5192C15.4637 23.7532 15.7082 23.8971 15.9737 23.8969C16.3664 23.8961 16.8864 23.8961 16.8864 23.8961L18.6777 24.5463C18.7289 24.5647 18.7736 24.5983 18.8056 24.6427L19.5838 25.7155C19.6405 25.7935 19.7198 25.8516 19.8112 25.8823L20.578 26.1378C20.6639 26.1665 20.7393 26.2198 20.7952 26.291C20.8966 26.4204 20.9213 26.5943 20.8596 26.7469L20.6802 27.1925C20.6009 27.3895 20.4538 27.5515 20.2658 27.6498C20.0294 27.7727 19.8606 27.9949 19.8057 28.2556L19.7505 28.5177C19.6996 28.7594 19.7516 29.0115 19.8937 29.2134L20.7235 30.3926L21.6811 30.9509C22.0472 31.1647 22.2394 31.5854 22.1617 32.002L22.1593 32.0143C22.117 32.2415 22.1514 32.4728 22.2573 32.6753C22.3405 32.835 22.4416 33.0291 22.5236 33.1869C22.6231 33.3786 22.6588 33.5966 22.6255 33.8096L22.5031 34.5951C22.4634 34.8498 22.5222 35.1101 22.6677 35.3231L23.189 36.086L23.4593 37.584L23.6444 37.771C23.7595 37.8871 23.9073 37.9672 24.0686 37.9958C24.1734 38.0139 24.2784 38.0313 24.384 38.0475C24.561 38.0743 24.7419 38.0378 24.8969 37.9485L25.0466 37.8627L24.9836 37.0183C24.9788 36.9519 24.9576 36.8875 24.9224 36.8311Z" fill="#B1FD80"/>
<path d="M35.1747 15.3963H35.3289C35.446 15.3963 35.5421 15.4888 35.5469 15.6054L35.5503 15.686C35.5553 15.8029 35.6514 15.895 35.7682 15.895H36.3205C36.4017 15.895 36.476 15.9402 36.5138 16.0119C36.5897 16.1571 36.4844 16.3315 36.3205 16.3315H35.8651C35.815 16.3315 35.7664 16.3486 35.7275 16.3804L34.4578 17.412L33.9188 18.0063C33.746 18.1967 33.5008 18.3054 33.2436 18.3054H32.2241C32.0755 18.3054 31.9376 18.3821 31.8594 18.5084C31.7714 18.6508 31.774 18.8312 31.8662 18.9706L32.3237 19.6629C32.4203 19.8092 32.5965 19.8819 32.7683 19.8465L32.8663 19.8263C33.0041 19.7976 33.1192 19.7031 33.174 19.5736L33.3279 19.2115C33.3602 19.1353 33.4136 19.0702 33.4821 19.0239L34.3682 18.4231C34.515 18.3235 34.702 18.3044 34.8659 18.3718L35.0825 18.4611C35.2267 18.5205 35.3895 18.5134 35.5277 18.4414C35.7113 18.3458 35.934 18.3663 36.097 18.494L36.8886 19.113C36.9393 19.1524 36.9616 19.2183 36.9456 19.2805L36.814 19.7926C36.7967 19.8599 36.8242 19.9308 36.8826 19.9686L37.0286 20.0629C37.0924 20.1044 37.1767 20.0954 37.2305 20.0413L37.6901 19.582C37.7337 19.5382 37.7487 19.4733 37.7287 19.415L37.5601 18.927C37.5559 18.9144 37.5499 18.9023 37.5428 18.8911L37.355 18.6045C37.2786 18.4882 37.3752 18.3364 37.5131 18.3561C37.5646 18.3632 37.6095 18.3952 37.6337 18.4414L37.8766 18.9102C37.8831 18.9226 37.891 18.9339 37.9 18.9441L38.5878 19.706C38.629 19.7517 38.6926 19.7701 38.7516 19.7532L39.0311 19.6745C39.1041 19.6537 39.1529 19.5849 39.1482 19.509L39.1204 19.0578C39.1193 19.0384 39.1146 19.0192 39.107 19.0016C38.3911 17.3689 37.3713 15.8998 36.1191 14.666C36.0624 14.61 35.9791 14.5898 35.9024 14.6129L35.1117 14.8509C35.0195 14.8787 34.9565 14.9638 34.9565 15.0599V15.1781C34.9565 15.2986 35.0542 15.3963 35.1747 15.3963Z" fill="#B1FD80"/>
<path d="M39.5846 21.2808C39.4895 21.2779 39.3992 21.2393 39.3311 21.1726L38.8547 20.7059C38.7838 20.6363 38.6885 20.5974 38.5895 20.5974H38.4219C38.2943 20.5974 38.1756 20.6615 38.1055 20.7679L37.9498 21.004C37.8683 21.1277 37.7223 21.1925 37.576 21.1699L36.5282 21.0087C36.4302 20.9937 36.3422 20.9409 36.2826 20.8616L36.2353 20.7986C36.1419 20.6736 36.1201 20.5089 36.1778 20.3639L36.181 20.3561C36.2674 20.1402 36.1739 19.8941 35.9656 19.7901C35.8172 19.7158 35.64 19.73 35.505 19.8264L35.0047 20.1851C34.9322 20.2371 34.8455 20.2663 34.7563 20.2686L33.1716 20.3114C32.9762 20.3169 32.8068 20.4485 32.7535 20.6365L32.5746 21.2658C32.5429 21.3782 32.4646 21.4717 32.3598 21.5229L32.0662 21.6668C31.9454 21.7259 31.8611 21.8402 31.8403 21.9728C31.818 22.1164 31.7216 22.2375 31.5867 22.2913L31.2019 22.4452C31.0609 22.5014 30.9624 22.6309 30.9456 22.7814L30.7809 24.2537C30.7707 24.344 30.7909 24.4351 30.8376 24.5126L31.8556 26.1931C31.9194 26.2987 32.0276 26.3699 32.1497 26.3872L33.0098 26.5085C33.0907 26.5201 33.1732 26.5072 33.247 26.4715L34.1333 26.0416C34.3631 25.9302 34.6352 25.9513 34.8453 26.0965L35.0656 26.2491C35.1704 26.3216 35.2928 26.3646 35.4199 26.3736L35.4724 26.377C35.8795 26.4053 36.1784 26.7709 36.1253 27.1753L36.1077 27.3101C36.0838 27.4913 36.1313 27.6751 36.2401 27.8224L37.2914 29.2464C37.3331 29.3031 37.3418 29.3782 37.3139 29.4428L36.6303 31.0293C36.6014 31.0966 36.6119 31.1748 36.6582 31.2321L37.092 31.772C37.1293 31.8185 37.144 31.8794 37.1314 31.9378L36.9426 32.8233C36.9342 32.863 36.9381 32.9045 36.9539 32.942C37.0132 33.082 37.201 33.1056 37.2945 32.9859C39.1363 30.6233 40.2343 27.6523 40.2343 24.4249C40.2343 23.4516 40.1343 22.5017 39.9444 21.5849C39.9087 21.4123 39.7605 21.2863 39.5846 21.2808Z" fill="#B1FD80"/>
</svg>
