<svg width="70" height="70" viewBox="0 0 102 102" fill="none" xmlns="http://www.w3.org/2000/svg">
<circle cx="50.8399" cy="50.8399" r="50.8399" fill="#2F80ED"/>
<mask id="mask0_657_9444" style="mask-type:alpha" maskUnits="userSpaceOnUse" x="0" y="0" width="102" height="102">
<circle cx="50.8399" cy="50.8399" r="50.8399" fill="url(#paint0_linear_657_9444)"/>
</mask>
<g mask="url(#mask0_657_9444)">
<path d="M30.9806 84.2036L23.0369 57.9893L76.2599 58.7836L68.3161 84.2036L65.933 80.2317L61.9612 89.7642L39.7187 88.9698L31.775 77.8486L30.9806 84.2036Z" fill="#092C4C"/>
<path d="M54.621 97.6426L57.3391 111.913" stroke="white" stroke-width="0.687025" stroke-linecap="round"/>
<path fill-rule="evenodd" clip-rule="evenodd" d="M57.0152 84.5073C59.8914 83.8104 65.9314 83.3923 67.0819 87.2948C68.2323 91.1974 66.6025 93.1022 65.6438 93.5668C71.1565 97.5159 81.4628 108.48 78.5866 120.746H50.5437V87.2948L57.0152 84.5073ZM44.0722 84.5079C41.196 83.811 35.156 83.3928 34.0055 87.2954C32.855 91.198 34.4849 93.1028 35.4436 93.5674C29.9309 97.5164 19.6245 108.481 22.5007 120.746H50.5437V87.2954L44.0722 84.5079Z" fill="#333333"/>
<path d="M54.6202 100.361L66.8516 92.8857L68.2107 95.6038L54.6202 100.361Z" fill="#1D1D1D"/>
<mask id="mask1_657_9444" style="mask-type:alpha" maskUnits="userSpaceOnUse" x="22" y="84" width="58" height="37">
<path fill-rule="evenodd" clip-rule="evenodd" d="M57.0152 84.5073C59.8914 83.8104 65.9314 83.3923 67.0819 87.2948C68.2323 91.1974 66.6025 93.1022 65.6438 93.5668C71.1565 97.5159 81.4628 108.48 78.5866 120.746H50.5437V87.2948L57.0152 84.5073ZM44.0722 84.5079C41.196 83.811 35.156 83.3928 34.0055 87.2954C32.855 91.198 34.4849 93.1028 35.4436 93.5674C29.9309 97.5164 19.6245 108.481 22.5007 120.746H50.5437V87.2954L44.0722 84.5079Z" fill="#333333"/>
</mask>
<g mask="url(#mask1_657_9444)">
<path d="M46.4669 100.36L34.2355 92.885L32.8765 95.6031L46.4669 100.36Z" fill="#1D1D1D"/>
</g>
<path d="M46.4661 98.3215L43.748 112.592" stroke="white" stroke-width="0.687025" stroke-linecap="round"/>
<path d="M47.7081 72.7653C51.4932 74.9232 55.1804 74.1381 57.6534 71.4408" stroke="#EB5757" stroke-width="0.687025" stroke-linecap="round"/>
<path d="M33.6836 40.9041C35.494 41.5016 40.4426 43.1348 45.7532 44.8874" stroke="#092C4C" stroke-width="0.687025" stroke-linecap="round"/>
<rect x="41.0295" y="66.3833" width="19.0267" height="28.54" rx="6.87025" fill="#F5B1B1"/>
<path d="M69.5707 50.0745C69.5707 56.0792 70.8076 61.6264 75.6864 61.6264C80.5652 61.6264 85.1997 54.7201 85.1997 48.7155C85.1997 42.7108 83.2832 39.2021 78.4045 39.2021C73.5257 39.2021 69.5707 44.0699 69.5707 50.0745Z" fill="#F5B1B1"/>
<path d="M31.5165 50.076C31.5165 56.0807 30.2796 61.6279 25.4008 61.6279C20.522 61.6279 15.8875 54.7216 15.8875 48.7169C15.8875 42.7123 17.8039 39.2036 22.6827 39.2036C27.5615 39.2036 31.5165 44.0713 31.5165 50.076Z" fill="#F5B1B1"/>
<rect x="23.3628" y="16.0984" width="54.3619" height="66.5934" rx="27.181" fill="#FFD9CB"/>
<rect x="49.1846" y="59.5881" width="5.43619" height="9.51334" rx="2.7181" fill="#F5B1B1"/>
<circle cx="36.7378" cy="51.4344" r="1.37405" fill="#092C4C"/>
<circle cx="47.043" cy="51.4344" r="1.37405" fill="#6A3851"/>
<path d="M54.6211 38.5234C56.6597 36.7113 62.2318 34.1744 68.2116 38.5234" stroke="#6A3851" stroke-width="0.687025" stroke-linecap="round"/>
<path d="M54.8365 49.8032C52.1937 38.0774 39.4202 24.7996 33.3638 19.6264C39.1449 11.8666 54.8365 0.140795 71.3539 15.3154C87.8714 30.49 82.6408 54.4016 77.9609 64.4605C78.2362 56.7008 78.6216 43.2505 77.9609 51.5276C77.3002 59.8047 71.6292 69.3463 68.8763 73.0825L62.2693 56.7008V64.4605L54.8365 42.9056V49.8032Z" fill="#092C4C"/>
<path d="M24.9628 59.1586C23.6702 42.3391 33.5795 26.9213 38.6957 21.3148L52.4287 9.54117C16.8846 8.86839 18.231 47.385 23.3472 66.7273V45.703L24.9628 59.1586Z" fill="#092C4C"/>
</g>
<defs>
<linearGradient id="paint0_linear_657_9444" x1="50.8399" y1="0" x2="50.8399" y2="101.68" gradientUnits="userSpaceOnUse">
<stop stop-color="#FFC1C2"/>
<stop offset="1" stop-color="#E97C7C"/>
</linearGradient>
</defs>
</svg>
