<svg width="22" height="21" viewBox="0 0 29 28" fill="none" xmlns="http://www.w3.org/2000/svg">
<path d="M14.9869 1.55705C14.607 0.945918 13.7175 0.945916 13.3375 1.55705L9.15072 8.29095C9.08388 8.39846 8.97769 8.47562 8.85478 8.50597L1.15666 10.407C0.458021 10.5795 0.183167 11.4254 0.646971 11.9757L5.75749 18.0384C5.83908 18.1352 5.87965 18.2601 5.87053 18.3863L5.29965 26.2951C5.24784 27.0129 5.96743 27.5357 6.63405 27.2646L13.9793 24.2777C14.0966 24.2301 14.2279 24.2301 14.3451 24.2777L21.6904 27.2646C22.3571 27.5357 23.0766 27.0129 23.0248 26.2951L22.454 18.3863C22.4448 18.2601 22.4854 18.1352 22.567 18.0384L27.6775 11.9757C28.1413 11.4254 27.8665 10.5795 27.1678 10.407L19.4697 8.50597C19.3468 8.47562 19.2406 8.39846 19.1738 8.29095L14.9869 1.55705Z" fill="white" stroke="white" stroke-width="0.485556"/>
</svg>
