<svg width="270" height="235" viewBox="0 0 270 235" fill="none" xmlns="http://www.w3.org/2000/svg">
    <path fill-rule="evenodd" clip-rule="evenodd" d="M146.135 25C121.452 25 98.7654 33.5562 80.8518 47.8715H51.9C48.1386 47.8715 45.061 50.9592 45.061 54.733C45.061 58.5068 48.1386 61.5944 51.9 61.5944H66.6344H70.9521C74.7136 61.5944 77.7911 64.6821 77.7911 68.4559C77.7911 70.3405 77.0206 72.0605 75.7804 73.3001C74.5449 74.5443 72.8305 75.3174 70.9521 75.3174H61.7404H56.6541H31.839C28.0775 75.3174 25 78.405 25 82.1788C25 85.9526 28.0775 89.0403 31.839 89.0403H49.604C44.2413 101.685 41.2709 115.597 41.2709 130.209C41.2709 135.511 41.663 140.721 42.4153 145.812C42.7299 147.939 43.1083 150.048 43.5505 152.134C56.4534 150.153 70.1405 148.561 84.4295 147.399L85.5055 148.383L86.5177 147.235C103.684 145.894 121.702 145.181 140.286 145.181C179.77 145.181 216.718 148.401 248.31 154C249.527 148.703 250.348 143.255 250.736 137.683C250.913 135.213 251 132.72 251 130.209C251 72.1016 204.053 25 146.135 25" fill="#F9F9FD"/>
    <path fill-rule="evenodd" clip-rule="evenodd" d="M11.0723 75H6.9277C3.11746 75 0 78.15 0 82C0 85.85 3.11746 89 6.9277 89H11.0723C14.8825 89 18 85.85 18 82C18 78.15 14.8825 75 11.0723 75" fill="#F1F2F7"/>
    <path fill-rule="evenodd" clip-rule="evenodd" d="M269.93 180C269.93 183.75 266.853 186.818 263.092 186.818H219.419C217.541 186.818 215.828 187.586 214.593 188.823C213.353 190.055 212.582 191.764 212.582 193.636C212.582 197.386 215.659 200.455 219.419 200.455H227.533C229.411 200.455 231.125 201.223 232.361 202.459C233.6 203.691 234.371 205.4 234.371 207.273C234.371 211.023 231.294 214.091 227.533 214.091H208.877C191.35 227.218 169.571 235 145.968 235C95.5589 235 53.4591 199.523 43.4082 152.241C56.308 150.273 69.9918 148.691 84.2773 147.536L85.3526 148.514L86.365 147.373C103.526 146.041 121.541 145.332 140.12 145.332C179.594 145.332 216.534 148.532 248.118 154.095C246.582 160.723 244.413 167.105 241.678 173.182H263.092C264.975 173.182 266.68 173.95 267.919 175.186C269.159 176.418 269.93 178.127 269.93 180" fill="#E8EBF2"/>
    <path fill-rule="evenodd" clip-rule="evenodd" d="M250 137.372C249.613 143.05 248.793 148.602 247.578 154C216.028 148.294 179.128 145.013 139.697 145.013C121.138 145.013 103.143 145.74 86 147.106L97.8886 133.331L116.383 145.4L141.418 138.487L184.486 145.013L203.183 138.487L207.919 145.013L219.217 136.627L229.774 146.304L246.426 133L250 137.372Z" fill="#E0E2EE"/>
    <path fill-rule="evenodd" clip-rule="evenodd" d="M86 147L85.0301 148L84 147.143C84.6633 147.092 85.3319 147.044 86 147" fill="#F1F2F7"/>
    <path fill-rule="evenodd" clip-rule="evenodd" d="M84 147.258C69.7159 148.422 56.0334 150.016 43.1349 152C42.6928 149.911 42.3145 147.799 42 145.668L64.1094 129L84 147.258Z" fill="#E0E2EE"/>
    <path fill-rule="evenodd" clip-rule="evenodd" d="M248 214V214C244.15 214 241 210.85 241 207C241 203.15 244.15 200 248 200C251.85 200 255 203.15 255 207C255 210.85 251.85 214 248 214" fill="#E1E3EF"/>
    <path opacity="0.5" d="M170.514 171.639L220.832 197.274L225.53 183.69L176.16 167.315L170.514 171.639Z" fill="url(#paint0_linear_0_1)"/>
    <path d="M169.139 129.497L186.49 130.86L182.637 168.491C182.637 168.491 182.3 168.868 181.481 168.722C180.663 168.576 179.804 168.121 179.804 168.121L177.223 138.206C177.223 138.206 175.731 148.784 175.835 151.76C175.914 154.002 176.682 156.738 177.094 159.077C177.448 161.091 178.193 165.903 178.193 165.903C178.193 165.903 177.313 166.304 176.845 166.394C176.376 166.485 175.776 165.987 175.776 165.987C175.776 165.987 169.692 154.213 169.614 151.977C169.536 149.74 169.139 129.497 169.139 129.497Z" fill="url(#paint1_linear_0_1)"/>
    <path d="M175.507 165.932C175.507 165.932 174.734 167.32 173.774 168.166C172.814 169.011 170.919 170.021 170.488 170.48C170.056 170.939 170.527 171.616 170.527 171.616L175.17 171.454L178.88 168.325L178.362 165.342L175.507 165.932Z" fill="#677285"/>
    <path d="M183.074 167.539L184.158 170.536C184.158 170.536 182.378 171.911 179.919 172.293C177.459 172.676 175.765 172.088 175.765 172.088C175.765 172.088 175.32 171.196 176.157 170.815C176.542 170.64 177.403 169.912 178.16 168.98C178.501 168.559 179.787 167.653 179.787 167.653L183.074 167.539Z" fill="#677285"/>
    <path d="M190.848 109.878C190.848 109.878 192.27 112.035 193.142 111.457C194.014 110.88 199.458 105.317 199.458 105.317C199.458 105.317 201.077 104.074 201.377 104.369C201.676 104.665 200.837 105.317 200.837 105.317C200.837 105.317 202.604 105.49 203.156 105.49C203.708 105.49 204.87 106.369 204.11 106.665C203.351 106.96 200.405 107.033 200.405 107.033C200.405 107.033 195.933 115.466 193.602 116.064C191.271 116.662 188.061 113.28 188.061 113.28L190.848 109.878Z" fill="#FDE7E6"/>
    <path d="M168.125 110.032C168.125 110.032 167.193 111.936 166.348 111.479C165.503 111.022 160.762 106.037 160.762 106.037C160.762 106.037 159.183 105.073 158.797 105.247C158.41 105.42 159.362 106.037 159.362 106.037C159.362 106.037 157.039 106.225 156.602 106.4C156.165 106.575 155.656 107.112 156.317 107.357C156.978 107.601 159.507 107.774 159.507 107.774C159.507 107.774 163.023 114.702 165.687 115.511C168.35 116.321 170.62 113.13 170.62 113.13L168.125 110.032Z" fill="#FDE7E6"/>
    <path d="M176.75 104.202V100.799C176.75 100.799 174.98 100.888 174.26 99.7065C173.541 98.5249 173.347 95.1717 173.347 95.1717L173.889 93.617L179.219 93.3924L182.02 95.7719L180.716 98.0681L180.467 98.5094L181.71 103.728L176.75 104.202Z" fill="#FDE7E6"/>
    <mask id="mask0_0_1" style="mask-type:alpha" maskUnits="userSpaceOnUse" x="173" y="93" width="10" height="12">
        <path d="M176.75 104.202V100.799C176.75 100.799 174.98 100.888 174.26 99.7065C173.541 98.5249 173.347 95.1717 173.347 95.1717L173.889 93.617L179.219 93.3924L182.02 95.7719L180.716 98.0681L180.467 98.5094L181.71 103.728L176.75 104.202Z" fill="white"/>
    </mask>
    <g mask="url(#mask0_0_1)">
        <path d="M180.217 97.5648C178.642 99.5184 175.917 100.884 175.562 100.884C175.208 100.884 177.544 103.334 177.544 103.334L179.444 104.203L182.142 103.632L183.105 100.884L181.405 97.7651C181.405 97.7651 181.793 95.6113 180.217 97.5648Z" fill="url(#paint2_linear_0_1)"/>
    </g>
    <path d="M166.992 111.399L169.612 114.918L171.283 113.159C171.283 113.159 170.012 120.105 169.612 123.437C169.212 126.768 169.137 130.086 169.137 130.086C169.137 130.086 173.332 131.639 176.459 131.9C179.586 132.161 186.865 131.489 186.865 131.489L185.925 111.935L188.652 114.459L191.853 110.773C191.853 110.773 186.342 102.33 185.3 101.838C184.258 101.346 181.361 101.838 181.361 101.838C181.361 101.838 179.306 104.263 178.472 104.297C177.638 104.331 175.789 101.838 175.789 101.838C175.789 101.838 172.835 101.367 171.976 102.33C171.117 103.292 166.992 111.399 166.992 111.399Z" fill="url(#paint3_linear_0_1)"/>
    <path d="M173.347 95.2096C173.347 95.2096 173.975 93.629 174.795 93.9044C175.571 94.165 176.243 94.7851 177.209 95.0762C178.174 95.3674 178.281 94.0596 178.937 94.2804C179.593 94.5012 179.16 96.4251 179.622 96.7833C180.085 97.1416 180.085 94.2804 181.071 95.0507C182.057 95.821 180.042 97.989 180.042 97.989C180.042 97.989 180.3 99.3215 180.383 99.4122C180.466 99.5028 180.457 98.4427 180.457 98.4427C180.457 98.4427 181.398 98.0824 181.799 96.4571C182.201 94.8318 182.374 94.1847 181.799 93.0038C181.225 91.8229 181.061 90.898 179.622 90.3409C178.184 89.7838 177.093 90.0017 176.088 90.3409C175.082 90.6801 174.354 91.3541 173.889 92.0247C172.805 93.6167 173.347 95.2096 173.347 95.2096Z" fill="#4D364F"/>
    <path d="M147.38 18.8408C134.218 20.4237 129.381 36.2517 133.344 45.478C136.14 51.9876 140.879 60.7852 149.711 58.675C158.544 56.5642 159.288 44.9507 154.636 43.371C149.985 41.7918 133.413 49.1593 135.286 66.1796C136.638 78.4601 148.356 82 148.356 82" stroke="#D7DAE9" stroke-width="2" stroke-dasharray="7"/>
    <rect width="0.404729" height="3.62772" transform="matrix(0.968532 0.249771 -0.202441 0.979483 153.896 3.69714)" fill="url(#paint4_linear_0_1)"/>
    <ellipse rx="4.5713" ry="3.36254" transform="matrix(0.967313 0.255293 -0.19803 0.98056 153.191 8.51486)" fill="url(#paint5_linear_0_1)"/>
    <ellipse rx="12.1899" ry="4.39894" transform="matrix(0.96769 0.253604 -0.19936 0.980237 152.489 11.3598)" fill="#E7EAEE"/>
    <ellipse rx="12.1899" ry="4.39894" transform="matrix(0.96769 0.253604 -0.19936 0.980237 152.405 11.7555)" fill="url(#paint6_linear_0_1)"/>
    <ellipse rx="4.83586" ry="1.66034" transform="matrix(0.967726 0.253442 -0.199489 0.980206 151.718 14.0823)" fill="white"/>
    <ellipse rx="0.585536" ry="0.595962" transform="matrix(0.967255 0.255552 -0.197827 0.980609 154.145 3.54611)" fill="#D8D8D8"/>
    <ellipse rx="0.780715" ry="0.794616" transform="matrix(0.967255 0.255552 -0.197827 0.980609 161.284 12.4276)" fill="#F9FBFF"/>
    <ellipse rx="0.780715" ry="0.794616" transform="matrix(0.967255 0.255552 -0.197827 0.980609 150.179 8.38204)" fill="#F9FBFF"/>
    <ellipse rx="0.780715" ry="0.794616" transform="matrix(0.967255 0.255552 -0.197827 0.980609 155.95 9.8348)" fill="#F9FBFF"/>
    <ellipse rx="0.780715" ry="0.794616" transform="matrix(0.967255 0.255552 -0.197827 0.980609 144.341 8.16274)" fill="#F9FBFF"/>
    <defs>
        <linearGradient id="paint0_linear_0_1" x1="168.767" y1="178.657" x2="178.392" y2="203.849" gradientUnits="userSpaceOnUse">
            <stop stop-color="#C4CDD1"/>
            <stop offset="1" stop-color="#C6CFD3" stop-opacity="0.01"/>
        </linearGradient>
        <linearGradient id="paint1_linear_0_1" x1="187.745" y1="168.56" x2="186.374" y2="129.194" gradientUnits="userSpaceOnUse">
            <stop stop-color="#A1A7B8"/>
            <stop offset="1" stop-color="#7B8195"/>
        </linearGradient>
        <linearGradient id="paint2_linear_0_1" x1="180.964" y1="101.917" x2="180.964" y2="98.6196" gradientUnits="userSpaceOnUse">
            <stop stop-color="#FBD8D6"/>
            <stop offset="1" stop-color="#EAC0BE" stop-opacity="0.7"/>
        </linearGradient>
        <linearGradient id="paint3_linear_0_1" x1="154.416" y1="115.464" x2="180.472" y2="143.032" gradientUnits="userSpaceOnUse">
            <stop stop-color="#E5E9F0"/>
            <stop offset="1" stop-color="#D2DAE8"/>
        </linearGradient>
        <linearGradient id="paint4_linear_0_1" x1="0.544781" y1="0.0106163" x2="0.0131274" y2="-0.000198661" gradientUnits="userSpaceOnUse">
            <stop stop-color="#F8FBFF"/>
            <stop offset="1" stop-color="#D9DDE2"/>
        </linearGradient>
        <linearGradient id="paint5_linear_0_1" x1="-2.73285" y1="5.14513" x2="5.82342" y2="7.79934" gradientUnits="userSpaceOnUse">
            <stop stop-color="#F8FBFF"/>
            <stop offset="1" stop-color="#D9DDE2"/>
        </linearGradient>
        <linearGradient id="paint6_linear_0_1" x1="-4.53022" y1="12.3195" x2="8.06542" y2="-1.72715" gradientUnits="userSpaceOnUse">
            <stop stop-color="#F8FBFF"/>
            <stop offset="1" stop-color="#D9DDE2"/>
        </linearGradient>
    </defs>
</svg>
