<svg width="300" height="258" viewBox="0 0 300 258" fill="none" xmlns="http://www.w3.org/2000/svg">
<path d="M298.752 255.299C305.987 240.98 285.308 169.385 141.923 169.385C38.4274 169.385 -9.07413 227.987 1.42751 257.686" fill="url(#paint0_radial_48_7076)"/>
<mask id="mask0_48_7076" style="mask-type:alpha" maskUnits="userSpaceOnUse" x="0" y="169" width="300" height="89">
<path d="M298.752 255.299C305.987 240.98 285.308 169.385 141.923 169.385C38.4274 169.385 -9.07413 227.987 1.42751 257.686" fill="white"/>
</mask>
<g mask="url(#mask0_48_7076)">
<ellipse opacity="0.671968" cx="119.809" cy="209.534" rx="7.88551" ry="4.38001" fill="url(#paint1_linear_48_7076)"/>
<ellipse opacity="0.451707" cx="203.981" cy="220.063" rx="12.4416" ry="6.83282" fill="url(#paint2_linear_48_7076)"/>
</g>
<path d="M154.577 155.354C154.577 155.354 153.302 155.24 152.959 156.026C152.617 156.812 154.39 160.013 155.275 160.868C156.16 161.723 158.05 160.942 157.135 158.942C156.221 156.942 154.577 155.354 154.577 155.354Z" fill="#2F2F2B"/>
<path d="M166.537 151.013C166.537 151.013 166.378 149.743 167.152 149.373C167.925 149.003 171.187 150.664 172.072 151.519C172.957 152.373 172.242 154.289 170.212 153.445C168.181 152.601 166.537 151.013 166.537 151.013Z" fill="#2F2F2B"/>
<path d="M160.975 151.251L154.32 155.343C154.104 155.476 153.96 155.702 153.93 155.954C153.861 156.543 154.409 157.011 154.977 156.844C156.855 156.292 160.416 155.201 161.656 154.516C163.372 153.567 160.975 151.251 160.975 151.251Z" fill="url(#paint3_linear_48_7076)"/>
<path d="M168.214 142.97L167.35 149.77C167.277 150.341 167.772 150.824 168.342 150.736C168.645 150.69 168.899 150.491 169.013 150.206C169.728 148.416 172.266 142.03 171.501 143.537C170.612 145.286 168.214 142.97 168.214 142.97Z" fill="url(#paint4_linear_48_7076)"/>
<path d="M151.351 141.576C151.351 141.576 152.13 143.073 152.939 143.854C153.879 145.507 155.455 148.89 158.078 153.547C159.704 156.434 162.43 150.859 161.23 147.771L158.675 141.196L169.002 144.591C170.093 144.95 171.276 144.404 171.71 143.341C172.182 142.188 171.606 140.85 170.468 140.343C168.631 139.524 165.533 138.048 160.938 135.571C160.137 134.797 159.045 134.392 159.045 134.392L151.351 141.576Z" fill="url(#paint5_linear_48_7076)"/>
<path d="M136.954 129.907L137.992 132.55L133.011 133.131L124.332 133.9L121.755 135.259L118.834 134.745L118.903 134.428L121.552 134.294L122.129 133.697C122.129 133.697 121.309 132.835 121.538 132.741C121.767 132.647 122.347 133.082 122.706 133.099C123.064 133.116 123.737 132.557 123.737 132.557L132.344 131.246L136.954 129.907Z" fill="#FFE9E9"/>
<path fill-rule="evenodd" clip-rule="evenodd" d="M160.343 117.444L160.353 117.473L155.199 124.671L150.565 124.714L150.566 122.253L154.259 122.718L159.743 115.724L159.753 115.755C159.77 115.58 159.786 115.45 159.786 115.45C159.786 115.45 159.885 115.38 160.044 115.267C160.064 114.954 160.123 114.67 160.123 114.67C160.123 114.67 161.221 114.014 161.516 113.957C161.641 113.932 161.532 114.126 161.364 114.356C161.798 114.066 162.177 113.828 162.279 113.808C162.551 113.756 162.93 114.261 162.93 114.261L163.147 115.376L162.713 116.039L160.343 117.444Z" fill="#FFE9E9"/>
<path d="M147.279 121.375C147.279 121.375 151.086 121.43 151.471 122.256C151.643 122.626 150.697 124.328 150.538 124.846C150.538 125.139 150.721 125.234 151.469 125.982C153.332 127.845 159.939 134.91 159.939 134.91C159.939 134.91 157.89 137.929 156.492 139.614C155.094 141.299 152.211 142.832 152.211 142.832C152.211 142.832 146.055 136.11 143.475 134.397C142.185 133.54 140.709 133.219 139.557 133.113C138.385 133.005 137.249 132.38 136.768 131.306L136.722 131.203C136.396 130.475 136.778 129.625 137.523 129.341C138.077 129.129 138.678 128.874 139.1 128.628C140.092 128.046 140.542 127.134 140.542 127.134L143.244 124.336C143.244 124.336 144.018 123.703 144.95 122.725C145.882 121.746 147.279 121.375 147.279 121.375Z" fill="url(#paint6_linear_48_7076)"/>
<path fill-rule="evenodd" clip-rule="evenodd" d="M140.828 123.087L139.254 124.717L141.652 127.033C141.652 127.033 143.314 127.378 143.655 127.707C143.995 128.035 143.226 125.403 143.226 125.403L140.828 123.087Z" fill="#FECECD"/>
<ellipse cx="139.04" cy="123.085" rx="2.38506" ry="3.47577" transform="rotate(-46 139.04 123.085)" fill="#FFE9E9"/>
<path fill-rule="evenodd" clip-rule="evenodd" d="M137.389 124.793C137.049 124.188 135.993 123.168 136.234 122.849C136.476 122.53 137.227 122.152 137.391 121.206C137.454 120.714 137.566 120.546 137.459 120.443C139.093 119.26 139.037 120.857 140.571 120.963C140.731 120.974 140.847 120.678 140.847 120.678C140.847 120.678 138.762 118.664 138.438 118.627C138.114 118.59 136.812 118.438 137.071 119.24C136.804 118.982 135.976 119.287 135.629 120.056C135.282 120.825 134.855 122.069 135.251 122.728C135.648 123.387 136.579 124.563 137.389 124.793Z" fill="#513450"/>
<rect x="183.926" y="21.5127" width="2.30769" height="20.7692" transform="rotate(13 183.926 21.5127)" fill="url(#paint7_linear_48_7076)"/>
<ellipse cx="179.383" cy="48.8842" rx="27.1154" ry="19.6154" transform="rotate(13 179.383 48.8842)" fill="url(#paint8_linear_48_7076)"/>
<ellipse cx="175.057" cy="65.0566" rx="72.6923" ry="25.9615" transform="rotate(13 175.057 65.0566)" fill="#E7EAEE"/>
<ellipse cx="174.538" cy="67.3056" rx="72.6923" ry="25.9615" transform="rotate(13 174.538 67.3056)" fill="url(#paint9_linear_48_7076)"/>
<ellipse cx="170.299" cy="80.5365" rx="28.8462" ry="9.80769" transform="rotate(13 170.299 80.5365)" fill="white"/>
<circle cx="185.311" cy="20.6476" r="3.46154" transform="rotate(13 185.311 20.6476)" fill="#D8D8D8"/>
<circle cx="228.201" cy="70.8127" r="4.61538" transform="rotate(13 228.201 70.8127)" fill="#F9FBFF"/>
<circle cx="161.178" cy="48.2345" r="4.61538" transform="rotate(13 161.178 48.2345)" fill="#F9FBFF"/>
<circle cx="196.031" cy="56.2804" r="4.61538" transform="rotate(13 196.031 56.2804)" fill="#F9FBFF"/>
<circle cx="125.892" cy="47.1926" r="4.61538" transform="rotate(13 125.892 47.1926)" fill="#F9FBFF"/>
<path fill-rule="evenodd" clip-rule="evenodd" d="M198.228 87.5746C198.303 87.396 198.362 87.2122 198.406 87.0235C199.624 81.7457 188.028 74.562 172.505 70.9783C156.982 67.3945 143.411 68.7678 142.192 74.0456C142.149 74.2343 142.121 74.4254 142.11 74.6188L142.062 74.6077L84.2853 186.955L185.47 210.315L198.276 87.5856L198.228 87.5746Z" fill="url(#paint10_linear_48_7076)"/>
<ellipse opacity="0.328544" cx="150.577" cy="181.499" rx="20.1923" ry="4.03846" fill="url(#paint11_linear_48_7076)"/>
<path d="M66.9226 150.562C66.9226 150.562 74.0544 163.102 75.8374 171.957C75.8374 179.032 71.38 180.872 66.9226 180.872C62.4652 180.872 58.0078 179.032 58.0078 171.957C59.7908 163.934 66.9226 150.562 66.9226 150.562Z" fill="#E5EAEF"/>
<path d="M66.9219 175.73C66.9219 175.412 67.1802 175.153 67.4988 175.153C67.8174 175.153 68.0757 175.412 68.0757 175.73V192.461H66.9219V175.73Z" fill="#CFD6DB"/>
<g opacity="0.796852">
<path d="M225.577 146.95C225.577 146.95 231.372 157.118 232.82 164.298C232.82 170.034 229.199 171.526 225.577 171.526C221.956 171.526 218.334 170.034 218.334 164.298C219.783 157.792 225.577 146.95 225.577 146.95Z" fill="#E5EAEF"/>
<path d="M225.578 167.358C225.578 167.1 225.788 166.89 226.047 166.89C226.306 166.89 226.516 167.1 226.516 167.358V180.923H225.578V167.358Z" fill="#CFD6DB"/>
</g>
<defs>
<radialGradient id="paint0_radial_48_7076" cx="0" cy="0" r="1" gradientUnits="userSpaceOnUse" gradientTransform="translate(130.111 200.008) rotate(-90) scale(51.3403 536.198)">
<stop stop-color="#EBEDF0" stop-opacity="0.24"/>
<stop offset="0.536775" stop-color="#EBEDF0" stop-opacity="0.845525"/>
<stop offset="1" stop-color="#E0E4E7" stop-opacity="0.01"/>
</radialGradient>
<linearGradient id="paint1_linear_48_7076" x1="113.462" y1="208.373" x2="115.865" y2="213.511" gradientUnits="userSpaceOnUse">
<stop stop-color="#E1E7EA"/>
<stop offset="1" stop-color="#D0D6DC"/>
</linearGradient>
<linearGradient id="paint2_linear_48_7076" x1="193.534" y1="219.424" x2="197.93" y2="228.594" gradientUnits="userSpaceOnUse">
<stop stop-color="#E1E7EA"/>
<stop offset="1" stop-color="#D0D6DC"/>
</linearGradient>
<linearGradient id="paint3_linear_48_7076" x1="163.019" y1="153.226" x2="159.613" y2="149.936" gradientUnits="userSpaceOnUse">
<stop stop-color="#7A87AF"/>
<stop offset="1" stop-color="#444F77"/>
</linearGradient>
<linearGradient id="paint4_linear_48_7076" x1="168.059" y1="151.167" x2="164.044" y2="147.289" gradientUnits="userSpaceOnUse">
<stop stop-color="#7A87AF"/>
<stop offset="1" stop-color="#444F77"/>
</linearGradient>
<linearGradient id="paint5_linear_48_7076" x1="173.151" y1="142.698" x2="161.31" y2="131.263" gradientUnits="userSpaceOnUse">
<stop stop-color="#7A87AF"/>
<stop offset="1" stop-color="#444F77"/>
</linearGradient>
<linearGradient id="paint6_linear_48_7076" x1="160.574" y1="119.028" x2="161.666" y2="145.076" gradientUnits="userSpaceOnUse">
<stop stop-color="#E5E9F0"/>
<stop offset="1" stop-color="#D2DAE8"/>
</linearGradient>
<linearGradient id="paint7_linear_48_7076" x1="187.032" y1="21.5735" x2="184.001" y2="21.5121" gradientUnits="userSpaceOnUse">
<stop stop-color="#F8FBFF"/>
<stop offset="1" stop-color="#D9DDE2"/>
</linearGradient>
<linearGradient id="paint8_linear_48_7076" x1="136.057" y1="59.2829" x2="186.659" y2="75.2441" gradientUnits="userSpaceOnUse">
<stop stop-color="#F8FBFF"/>
<stop offset="1" stop-color="#D9DDE2"/>
</linearGradient>
<linearGradient id="paint9_linear_48_7076" x1="74.8304" y1="114.051" x2="149.079" y2="30.3848" gradientUnits="userSpaceOnUse">
<stop stop-color="#F8FBFF"/>
<stop offset="1" stop-color="#D9DDE2"/>
</linearGradient>
<linearGradient id="paint10_linear_48_7076" x1="180.58" y1="196.673" x2="218.877" y2="74.2986" gradientUnits="userSpaceOnUse">
<stop stop-color="#F8FBFF" stop-opacity="0.2"/>
<stop offset="1" stop-color="#D9DDE2" stop-opacity="0.6"/>
</linearGradient>
<linearGradient id="paint11_linear_48_7076" x1="135.421" y1="181.978" x2="142.398" y2="196.876" gradientUnits="userSpaceOnUse">
<stop stop-color="#C4CDD1"/>
<stop offset="1" stop-color="#C6CFD3" stop-opacity="0.01"/>
</linearGradient>
</defs>
</svg>
